<?xml version="1.0" standalone="no"?><!DOCTYPE svg PUBLIC "-//W3C//DTD SVG 1.1//EN" "http://www.w3.org/Graphics/SVG/1.1/DTD/svg11.dtd"><svg class="icon" width="16px" height="16.00px" viewBox="0 0 1024 1024" version="1.1" xmlns="http://www.w3.org/2000/svg"><path fill="#FF8198" d="M819.2 240H256l-8-48c-8-46.4-48-80-94.4-80H96c-17.6 0-32 14.4-32 32s14.4 32 32 32h57.6c16 0 28.8 11.2 32 27.2l75.2 432v3.2c6.4 28.8 32 49.6 62.4 49.6h440c30.4 0 57.6-22.4 62.4-52.8l57.6-320c0-3.2 1.6-8 1.6-11.2-1.6-35.2-30.4-64-65.6-64z m-56 384H323.2l-54.4-320h552l-57.6 320zM304 720c-52.8 0-96 43.2-96 96s43.2 96 96 96 96-43.2 96-96-43.2-96-96-96z m0 128c-17.6 0-32-14.4-32-32s14.4-32 32-32 32 14.4 32 32-14.4 32-32 32zM768 720c-52.8 0-96 43.2-96 96s43.2 96 96 96 96-43.2 96-96-43.2-96-96-96z m0 128c-17.6 0-32-14.4-32-32s14.4-32 32-32 32 14.4 32 32-14.4 32-32 32z"  /></svg>