<?xml version="1.0" standalone="no"?><!DOCTYPE svg PUBLIC "-//W3C//DTD SVG 1.1//EN" "http://www.w3.org/Graphics/SVG/1.1/DTD/svg11.dtd"><svg class="icon" width="16px" height="16.00px" viewBox="0 0 1024 1024" version="1.1" xmlns="http://www.w3.org/2000/svg"><path fill="#FF8198" d="M785.066667 170.666667H204.8c-18.875733 0-34.133333 14.6432-34.133333 32.768v617.130666c0 18.090667 15.2576 32.768 34.133333 32.768h614.4c18.875733 0 34.133333-14.677333 34.133333-32.768V203.434667c0-18.1248-15.2576-32.768-34.133333-32.768m-34.133333 68.266666v546.133334H238.933333v-546.133334h515.413334M512 566.272c-78.336 0-146.193067-46.1824-168.925867-114.926933l-10.752-32.426667 64.853334-21.4016 10.683733 32.426667c13.277867 40.106667 56.1152 68.096 104.1408 68.096 48.0256 0 90.862933-27.989333 104.1408-68.096l10.683733-32.426667 64.853334 21.435733-10.752 32.392534c-22.7328 68.744533-90.589867 114.961067-168.925867 114.961066" /></svg>