<?xml version="1.0" standalone="no"?><!DOCTYPE svg PUBLIC "-//W3C//DTD SVG 1.1//EN" "http://www.w3.org/Graphics/SVG/1.1/DTD/svg11.dtd"><svg t="1573019726993" class="icon" viewBox="0 0 1024 1024" version="1.1" xmlns="http://www.w3.org/2000/svg" p-id="11666" width="16" height="16" xmlns:xlink="http://www.w3.org/1999/xlink"><defs><style type="text/css"></style></defs><path d="M654.7 530.5L516.4 274.3 335.1 530.5 65 415.7l82.5 391.5 709.4 17.4 106.7-408.8-308.9 114.7z m171.5 253.2l-646.1-15.8L120 482.5 349.2 580l162.6-230L636 580.2 905.4 480l-79.2 303.7z" fill="#F1C151" p-id="11667"></path><path d="M863.3 422c1.6 0.1 3.2 0.2 4.8 0.2 16 0 31.2-5.7 43.4-16.2 13.4-11.6 21.5-27.8 22.8-45.5 2.6-36.5-25-68.4-61.5-71h-0.9c-37.5-1.2-69 28.3-70.3 65.8v0.8c0.1 34.4 27.2 63.5 61.7 65.9z m7-92.6c14.4 1.2 25.2 13.8 24.1 28.2-0.5 7-3.7 13.5-9.1 18.1-5.3 4.6-12.2 6.9-19.2 6.4-13.6-1-24.3-12.3-24.6-26 0.8-15.1 13.6-27 28.8-26.7zM153.2 424.4c1.6 0.1 3.2 0.2 4.8 0.2 16 0 31.2-5.7 43.4-16.2 13.4-11.6 21.5-27.8 22.8-45.5 2.6-36.5-25-68.4-61.5-71h-0.9c-18.2-0.6-35.4 5.9-48.7 18.3-13.3 12.4-21 29.3-21.6 47.5v0.8c0.1 34.4 27.2 63.4 61.7 65.9z m-12.8-85.1c5.4-5.1 12.4-7.7 19.8-7.6 14.4 1.2 25.2 13.8 24.1 28.2-0.5 7-3.7 13.5-9.1 18.1-5.3 4.6-12.2 6.9-19.2 6.4-13.6-1-24.3-12.3-24.6-26 0.4-7.2 3.6-14 9-19.1zM510.6 257.7c1.6 0.1 3.2 0.2 4.8 0.2 16 0 31.2-5.7 43.4-16.2 13.4-11.6 21.5-27.8 22.8-45.5 1.3-17.7-4.4-34.8-16.1-48.3s-27.8-21.5-45.5-22.8h-0.7c-37.5-1.3-69.1 28.1-70.5 65.5v0.7c0.1 34.8 27.2 63.9 61.8 66.4z m7-92.6c6.9 0.6 13.2 3.8 17.7 9 4.6 5.3 6.9 12.2 6.4 19.2s-3.7 13.5-9.1 18.1c-5.3 4.6-12.2 6.9-19.2 6.4-13.7-1-24.4-12.4-24.6-26 0.9-15.2 13.6-27.1 28.8-26.7zM149.8 853.6h702v40h-702z" fill="#F1C151" p-id="11668"></path></svg>