<?xml version="1.0" standalone="no"?><!DOCTYPE svg PUBLIC "-//W3C//DTD SVG 1.1//EN" "http://www.w3.org/Graphics/SVG/1.1/DTD/svg11.dtd"><svg t="1571760484318" class="icon" viewBox="0 0 1187 1024" version="1.1" xmlns="http://www.w3.org/2000/svg" p-id="6752" xmlns:xlink="http://www.w3.org/1999/xlink" width="231.8359375" height="200"><defs><style type="text/css"></style></defs><path d="M406.736182 946.759263m-77.240737 0a77.240737 77.240737 0 1 0 154.481473 0 77.240737 77.240737 0 1 0-154.481473 0Z" fill="#ffc0cb" p-id="6753"></path><path d="M1015.373632 946.759263m-77.240737 0a77.240737 77.240737 0 1 0 154.481473 0 77.240737 77.240737 0 1 0-154.481473 0Z" fill="#ffc0cb" p-id="6754"></path><path d="M620.370371 811.832407H404.291855a160.836724 160.836724 0 0 1-141.770973-146.659626c0-2.933193-48.886542-345.627853-64.530235-491.309749a132.971395 132.971395 0 0 0-38.620369-91.417834 48.886542 48.886542 0 0 0-28.84306-9.777309H36.176192A35.687176 35.687176 0 1 1 36.176192 0.315807h86.040314a116.34997 116.34997 0 0 1 79.685064 23.954406 195.546169 195.546169 0 0 1 66.485697 140.304376c17.599155 146.659626 64.04137 488.865422 64.530236 488.865421S342.694811 733.61394 408.691643 738.991459c74.307544 4.399789 677.567474 0 684.411591 0a34.22058 34.22058 0 0 1 35.687175 35.198311 35.687176 35.687176 0 0 1-35.19831 35.687175c-17.599155 0-275.720098 1.955462-473.221728 1.955462z" fill="#ffc0cb" p-id="6755"></path><path d="M434.601511 635.840855a35.687176 35.687176 0 0 1 0-71.374351c3.422058 0 349.049911-7.332981 484.465633-16.132559 105.594931-6.844116 121.72749-53.286331 122.216355-55.241793S1097.014157 278.480232 1112.65785 195.861976a65.996832 65.996832 0 0 0-5.377519-54.752928 52.797466 52.797466 0 0 0-39.109234-9.288443H368.604679a35.687176 35.687176 0 1 1 0-71.374351h691.255706a120.260894 120.260894 0 0 1 97.773084 30.309656 126.616144 126.616144 0 0 1 24.443271 117.816567c-16.132559 83.595987-70.885486 293.319253-73.329813 303.096561s-27.376464 97.773084-186.746591 108.039258c-136.393453 8.799578-483.976767 16.132559-488.865422 16.132559z" fill="#ffc0cb" p-id="6756"></path></svg>