<?xml version="1.0" standalone="no"?><!DOCTYPE svg PUBLIC "-//W3C//DTD SVG 1.1//EN" "http://www.w3.org/Graphics/SVG/1.1/DTD/svg11.dtd"><svg t="1571760412341" class="icon" viewBox="0 0 1024 1024" version="1.1" xmlns="http://www.w3.org/2000/svg" p-id="5147" id="mx_n_1571760412346" xmlns:xlink="http://www.w3.org/1999/xlink" width="200" height="200"><defs><style type="text/css"></style></defs><path d="M595.271542 527.284101c82.767052-34.736129 141.18351-117.766171 141.18351-214.447117 0-127.82527-102.119819-231.819786-227.640604-231.819786-125.533065 0-227.653907 103.994516-227.653907 231.819786 0 97.512894 59.423391 181.143617 143.328359 215.338417C246.160399 568.868195 112.494097 731.367173 112.494097 925.074943c0 11.55415 9.203616 20.925588 20.547988 20.925588s20.550035-9.371438 20.550035-20.925588c0-201.192232 160.719448-364.860848 358.285083-364.860848 197.564611 0 358.298386 163.668617 358.298386 364.860848 0 11.55415 9.203616 20.925588 20.547988 20.925588 11.346419 0 20.550035-9.371438 20.550035-20.925588C911.274636 729.921241 775.605723 566.44296 595.271542 527.284101zM322.259588 312.836985c0-104.744599 83.683934-189.965539 186.553836-189.965539 102.856599 0 186.540534 85.22094 186.540534 189.965539 0 104.756879-83.683934 189.977819-186.540534 189.977819C405.943522 502.81378 322.259588 417.59284 322.259588 312.836985z" p-id="5148"></path></svg>